# xmcd
#
# Track frame offsets:
#	150
#	12113
#	26009
#	42183
#	56196
#	67753
#	85261
#	103071
#	115473
#	129497
#	149020
#	162413
#	173290
#	194628
#	210214
#	224245
#	232651
#	243252
#	257340
#	271803
#
# Disc length: 3781 seconds
#
# Revision: 2
# Processed by: cddbd v1.5.2PL0 Copyright (c) Steve Scherf et al.
# Submitted via: audiograbber 1.83.01
#
DISCID=160ec314
DTITLE=T-Bone Walker - T-Bone Standard Time
DYEAR=1900
DGENRE=
TTITLE0=T-Bone Is Back
TTITLE1=How Long Blues
TTITLE2=Reconsider Baby
TTITLE3=I Wonder Why
TTITLE4=Sometimes I Wonder
TTITLE5=Ain'T Your Fool No More
TTITLE6=Every Time
TTITLE7=Glamour Girl
TTITLE8=Left Home When I Was A Kid
TTITLE9=T-Bone's Way
TTITLE10=All Night Long
TTITLE11=My Patience Is Running Out
TTITLE12=Heartache
TTITLE13=When We Were Schoolmates
TTITLE14=Good Boy
TTITLE15=Got To Cross The Deep Blue Sea
TTITLE16=She's A Hit
TTITLE17=I Want A Little Girl
TTITLE18=Louisiana Bayou Drive
TTITLE19=Dirty Mistreater
EXTD=
EXTT0=
EXTT1=
EXTT2=
EXTT3=
EXTT4=
EXTT5=
EXTT6=
EXTT7=
EXTT8=
EXTT9=
EXTT10=
EXTT11=
EXTT12=
EXTT13=
EXTT14=
EXTT15=
EXTT16=
EXTT17=
EXTT18=
EXTT19=
PLAYORDER=
